<svg xmlns="http://www.w3.org/2000/svg" width="50" height="50" viewBox="0 0 50 50"><defs><style>.a{fill:#2d328d;opacity:0.999;}.b{fill:#fff;}</style></defs><g transform="translate(-364)"><path class="a" d="M0,0H50V50H0Z" transform="translate(364)"/><path class="b" d="M19.962,15.545h0L14.638,10.4l5.325-5.142h0a.524.524,0,0,0,.125-.189.516.516,0,0,0-.126-.56L17.447,2.083a.562.562,0,0,0-.58-.121.548.548,0,0,0-.2.121h0L11.347,7.225,6.022,2.083h0a.548.548,0,0,0-.2-.121.562.562,0,0,0-.58.121L2.731,4.512a.516.516,0,0,0-.126.56.525.525,0,0,0,.125.189h0L8.056,10.4,2.731,15.545h0a.526.526,0,0,0-.125.189.516.516,0,0,0,.126.56l2.515,2.429a.562.562,0,0,0,.58.121.548.548,0,0,0,.2-.121h0l5.325-5.142,5.325,5.142h0a.548.548,0,0,0,.2.121.562.562,0,0,0,.58-.121l2.515-2.429a.516.516,0,0,0,.126-.56.525.525,0,0,0-.125-.189Z" transform="translate(377.653 14.287)"/></g></svg>