<svg xmlns="http://www.w3.org/2000/svg" width="102.913" height="19.976" viewBox="0 0 102.913 19.976"><defs><style>.a{fill:#231f20;}.b{fill:none;}.c{fill:#a31e22;}.d{fill:#c02b29;}.e{fill:#bf2a28;}.f{fill:#c12d2b;}.g{fill:#bf2927;}.h{fill:#c12f2e;}.i{fill:#e4a3a2;}.j{fill:#c02c2a;}.k{fill:#e7afae;}</style></defs><g transform="translate(0 0)"><g transform="translate(22.05 0.811)"><path class="a" d="M514.305,533.246a.465.465,0,0,1,.533.533v16.758a.465.465,0,0,1-.533.533h-3.294a.465.465,0,0,1-.533-.533V533.779a.465.465,0,0,1,.533-.533Z" transform="translate(-510.479 -533.246)"/><path class="a" d="M639.835,542.788c1.526.9,2.276,3.294,2.276,7.168v.581c-.024.363-.194.533-.533.533h-3.294c-.363-.024-.533-.194-.533-.533v-.581c0-2.519-.388-4.117-1.162-4.819a4.783,4.783,0,0,0-3.318-1.041H630.56v6.442a.465.465,0,0,1-.533.533h-3.294a.465.465,0,0,1-.533-.533V533.779a.465.465,0,0,1,.533-.533h3.294a.465.465,0,0,1,.533.533v6.442h2.713c1.6,0,2.664-.315,3.2-.92s.8-2.252.8-4.94v-.581a.465.465,0,0,1,.533-.533h3.293a.465.465,0,0,1,.533.533v.581c0,3.9-1.138,6.49-3.39,7.725A6.03,6.03,0,0,1,639.835,542.788Z" transform="translate(-618.209 -533.246)"/><path class="a" d="M911.113,551.409a8.369,8.369,0,0,1-5.885-1.865,6.66,6.66,0,0,1-1.986-5.134V533.779a.465.465,0,0,1,.533-.533h3.294a.465.465,0,0,1,.533.533v10.607a2.815,2.815,0,0,0,.993,2.3,3.966,3.966,0,0,0,2.567.8,3.334,3.334,0,0,0,2.4-.8,3.041,3.041,0,0,0,.823-2.3V533.779a.465.465,0,0,1,.533-.533h3.294a.465.465,0,0,1,.533.533V544.41a7.011,7.011,0,0,1-1.816,5.11c-1.211,1.259-3.124,1.889-5.764,1.889Z" transform="translate(-876.119 -533.246)"/><path class="a" d="M1192.512,543.03c1.526.751,2.277,3.052,2.277,6.926v.581c-.024.363-.194.533-.533.533h-3.293c-.363-.024-.533-.194-.533-.533v-.581q0-3.778-1.162-4.577a5.839,5.839,0,0,0-3.318-.8h-2.712v5.958a.465.465,0,0,1-.533.533h-3.294a.465.465,0,0,1-.533-.533V533.779a.465.465,0,0,1,.533-.533h9.227a6.771,6.771,0,0,1,4.577,1.429,4.909,4.909,0,0,1,1.647,3.9,4.107,4.107,0,0,1-2.785,4.262Zm-9.275-2.325h5.4a1.638,1.638,0,0,0,1.865-1.84c0-1.162-.63-1.744-1.865-1.744h-5.4Z" transform="translate(-1132.719 -533.246)"/><path class="a" d="M1456.97,550.537V543.95c0-3.851.751-6.611,2.277-8.234a8.493,8.493,0,0,1,6.563-2.47h6.127c.339,0,.509.169.533.533v16.758c0,.339-.169.509-.533.533h-3.294c-.339,0-.509-.17-.533-.533V547.8h-6.781v2.737c0,.339-.169.509-.532.533H1457.5C1457.165,551.07,1456.995,550.9,1456.97,550.537Zm8.839-13.417a3.933,3.933,0,0,0-3.318,1.526c-.775,1.017-1.163,2.785-1.163,5.279h6.781v-6.805Z" transform="translate(-1391.607 -533.246)"/></g><path class="a" d="M200,524.089a3.658,3.658,0,0,1,1.74-1.995,5.041,5.041,0,0,1,3.311-.5,4.706,4.706,0,0,1,2.732,1.451,5.1,5.1,0,0,1,1.18,2.349,13.4,13.4,0,0,1,.062,3.471c-.016.909-.138,1.817-.133,2.726a8.461,8.461,0,0,1-1.951,5.273,23.807,23.807,0,0,1-4.441,4.293c-.155.12-.325.22-.488.329-.1-.161-.2-.325-.314-.481a6.427,6.427,0,0,0-2.635-2.1,18.1,18.1,0,0,0-2.866-.894,10.125,10.125,0,0,1-3.324-1.372,3.593,3.593,0,0,1-1.689-3.283c.065-1.353.06-2.71.087-4.065.011-.552.048-1.1.035-1.655a4.152,4.152,0,0,1,1.348-3.151,5.1,5.1,0,0,1,3.966-1.426,7.588,7.588,0,0,1,3.166.938C199.853,524.028,199.923,524.054,200,524.089Zm3.988,8.522a17.13,17.13,0,0,0,2.458-3.251,5.982,5.982,0,0,0,.739-4.7,2.9,2.9,0,0,0-1.334-1.818,3.351,3.351,0,0,0-3.226-.126,2.876,2.876,0,0,0-1.712,2.022,5.562,5.562,0,0,1-.191.58c-.33-.158-.636-.295-.934-.448a6.844,6.844,0,0,0-3.075-.809,4.134,4.134,0,0,0-2.225.524,2.185,2.185,0,0,0-.76,3.327,4.569,4.569,0,0,0,2.741,1.706c1.3.3,2.624.455,3.926.731a10.306,10.306,0,0,1,1.916.625A3.466,3.466,0,0,1,203.991,532.612Z" transform="translate(-191.179 -521.505)"/><g transform="translate(3.194 1.681)"><path class="b" d="M392.93,551.146l.536-.171c-.038-.052-.077-.1-.118-.151a2.16,2.16,0,0,0-.526-.449,1.244,1.244,0,0,1,.107.456C392.934,550.947,392.93,551.064,392.93,551.146Z" transform="translate(-382.092 -550.063)"/><path class="b" d="M246.409,575.853l.1-.119a1.7,1.7,0,0,1-.035-.244c-.066.027-.13.055-.193.086a2.742,2.742,0,0,0-.325.187l.041.021Z" transform="translate(-245.366 -573.443)"/><path class="b" d="M264.571,576.231a.68.68,0,0,1,.118.06A.68.68,0,0,0,264.571,576.231Z" transform="translate(-262.697 -574.132)"/><path class="b" d="M312.725,605.227a.764.764,0,0,0-.117.084.528.528,0,0,0-.125.027.528.528,0,0,1,.125-.027A.764.764,0,0,1,312.725,605.227Z" transform="translate(-307.3 -601.126)"/><path class="c" d="M262.453,552.336a.546.546,0,0,1-.087-.36.574.574,0,0,1,.548-.508l.332.161a.323.323,0,0,1,.236.228,7.246,7.246,0,0,0,.453-.99.417.417,0,0,1-.01-.171,1.075,1.075,0,0,1,.025-.112.5.5,0,0,1,.158-.262,5.924,5.924,0,0,0,.128-.6q.038-.238.057-.468h-.013a.566.566,0,0,1-.016-1.121,3.773,3.773,0,0,0-.082-.4.6.6,0,0,1-.133-.086.671.671,0,0,1-.141-.617,2.6,2.6,0,0,0-.176-.278l-.536.171c0-.083,0-.2,0-.315a1.244,1.244,0,0,0-.107-.456,2.285,2.285,0,0,0-1.4-.3,1.9,1.9,0,0,0-1.067.458.571.571,0,0,1,.007.094c0,.233-.214.6-.567.54-.039.058-.076.115-.109.171a3.437,3.437,0,0,0-.571,2.1l.054.126-.112-.079s-.06-.042-.161-.107a.426.426,0,0,1-.377.277.573.573,0,0,1-.63-.4.6.6,0,0,1,.047-.427,8.477,8.477,0,0,0-2.921-.943.516.516,0,0,1-.922,0,3.381,3.381,0,0,0-.9.224,1.7,1.7,0,0,0,.035.244c.049-.034.1-.066.148-.1.033-.02.067-.038.1-.055a.7.7,0,0,1,.26-.076.514.514,0,0,1,.11,0,.532.532,0,0,1,.114.03.678.678,0,0,1,.118.06.154.154,0,0,0,.054.013.668.668,0,0,1,.6.624c.019.377-.288.68-.752.8a10.948,10.948,0,0,1-.068,1.093.656.656,0,0,1-.327.431,4.588,4.588,0,0,0,1.377.569.473.473,0,0,1,.047-.071c.5-.6.831-.385,1.258.225l0,0a18.794,18.794,0,0,1,2.914.666s0-.006,0-.008a.564.564,0,0,1,1.126-.006.589.589,0,0,1-.142.379q.1.042.194.087a.509.509,0,0,1,.41-.162.55.55,0,0,1,.546.57.618.618,0,0,1-.017.137,2.124,2.124,0,0,1,.447.445,8.038,8.038,0,0,0,1.036-1.237l-.012.006A.475.475,0,0,1,262.453,552.336Zm-7.176-1.3c-.49,0-.812-.383-.811-.959a.687.687,0,0,1,.766-.763.938.938,0,0,1,.891.921C256.117,550.6,255.729,551.126,255.277,551.039Zm1.111-1.662a.532.532,0,0,1-.5-.575c0-.374.175-.552.536-.551s.537.184.532.585A.541.541,0,0,1,256.388,549.377Zm1.949,1.381a.525.525,0,0,1-.643.332.466.466,0,0,1-.381-.52,1.669,1.669,0,0,1,.015-.232.56.56,0,0,1,.02-.083.4.4,0,0,1,.015-.038.312.312,0,0,1,.042-.069.3.3,0,0,1,.135-.093.529.529,0,0,1,.125-.027.775.775,0,0,1,.117-.084l.035-.017a.251.251,0,0,1,.066-.019h.031a.167.167,0,0,1,.059.014.513.513,0,0,1,.2.226C258.444,550.293,258.418,550.53,258.337,550.758Zm1.758-.39a.39.39,0,0,1-.531.241.823.823,0,0,1-.434-.372.53.53,0,0,1-.048-.147.443.443,0,0,1-.006-.076v0a.372.372,0,0,1,.211-.334l.162-.137c.233-.1.492-.085.6.135A1.135,1.135,0,0,1,260.094,550.368Zm.377-1.169a.564.564,0,0,1,0-1.127c.355,0,.523.183.523.563S260.826,549.2,260.472,549.2Zm.65,2.491a.549.549,0,0,1-.544-.562c0-.39.172-.569.546-.565.351,0,.523.189.522.565A.551.551,0,0,1,261.121,551.69Zm.334-3.619a.552.552,0,0,1-.522-.569.542.542,0,0,1,.554-.559c.351.006.516.19.514.575A.5.5,0,0,1,261.456,548.071Zm.665,1.542c0-.359.178-.531.552-.533.356,0,.514.158.516.521a.537.537,0,1,1-1.068.012Z" transform="translate(-252.357 -545.843)"/><path class="c" d="M239.891,580.851a.9.9,0,0,1-.28-1.035l-.414-.069a1.007,1.007,0,0,1-.082,1,1.258,1.258,0,0,1-.463.323,2.219,2.219,0,0,0,.448.679A.975.975,0,0,1,239.891,580.851Z" transform="translate(-238.567 -577.406)"/><path class="d" d="M246.427,578.34c.055-.351.048-.711.068-1.093.463-.117.77-.42.752-.8a.668.668,0,0,0-.6-.624c.01.027.011.068.031.08.159.1.15.264.02.32-.09.038-.247-.082-.373-.131a2.983,2.983,0,0,1,.157-.263c.016-.022.073-.013.112-.018a.672.672,0,0,0-.118-.06.532.532,0,0,0-.114-.03.506.506,0,0,0-.11,0,.7.7,0,0,0-.26.076c-.034.017-.067.035-.1.055-.05.03-.1.063-.148.1l-.1.119a.9.9,0,0,0,.28,1.035.975.975,0,0,0-.792.9,4.488,4.488,0,0,0,.964.77A.656.656,0,0,0,246.427,578.34Zm-.459-.48a2.31,2.31,0,0,1-.4-.276l.322-.385c.133.188.252.3.281.424C246.184,577.687,246,577.874,245.968,577.86Z" transform="translate(-244.604 -573.655)"/><path class="e" d="M237.981,580.474a1.007,1.007,0,0,0,.082-1l-.041-.021a1.073,1.073,0,0,0-.568,1.131,1.272,1.272,0,0,0,.064.215A1.259,1.259,0,0,0,237.981,580.474Z" transform="translate(-237.434 -577.129)"/><path class="f" d="M404.568,563.7a.606.606,0,0,0,.134.086,3.079,3.079,0,0,0-.275-.7A.671.671,0,0,0,404.568,563.7Z" transform="translate(-392.876 -561.891)"/><path class="g" d="M268.749,596.155a.687.687,0,0,0-.766.763c0,.575.321.956.811.959.452.087.84-.438.847-.8A.938.938,0,0,0,268.749,596.155Zm.131.666a1.518,1.518,0,0,1-.332-.2c.077-.076.152-.21.23-.212.1,0,.2.105.343.2C269.005,596.712,268.921,596.835,268.88,596.822Z" transform="translate(-265.873 -592.681)"/><path class="g" d="M279.084,622.332a.47.47,0,0,0-.047.07,2.567,2.567,0,0,0,.347.05l.215.018a1.959,1.959,0,0,1-.244-.142c.061-.062.121-.173.183-.174.081,0,.164.084.3.162-.078.068-.134.136-.171.16.208.02.436.048.679.084l0,0C279.915,621.947,279.58,621.729,279.084,622.332Z" transform="translate(-276.164 -616.717)"/><path class="d" d="M266.938,572.168a.519.519,0,0,0,.455-.286c-.153-.015-.307-.023-.46-.023a4.082,4.082,0,0,0-.463.026A.518.518,0,0,0,266.938,572.168Z" transform="translate(-264.466 -570.061)"/><path class="h" d="M349.595,552.707a.567.567,0,0,0-.007-.094,3.016,3.016,0,0,0-.56.635C349.381,553.311,349.591,552.94,349.595,552.707Z" transform="translate(-341.322 -552.145)"/><path class="d" d="M402.865,579.637a.546.546,0,0,0,.5.554h.013a4.9,4.9,0,0,0-.029-1.121A.548.548,0,0,0,402.865,579.637Z" transform="translate(-391.441 -576.775)"/><g transform="translate(3.915 3.958)"><path class="g" d="M294.549,603.156a.471.471,0,0,0-.426.46.438.438,0,0,0,.874,0A.471.471,0,0,0,294.549,603.156Z" transform="translate(-294.123 -603.156)"/><path class="i" d="M298.228,604.932a.131.131,0,0,0-.119.128.122.122,0,0,0,.244,0A.131.131,0,0,0,298.228,604.932Z" transform="translate(-297.834 -604.81)"/></g><g transform="translate(4.466 3.175)"><path class="g" d="M302.531,591.813a.471.471,0,0,0-.426.46.438.438,0,0,0,.874,0A.471.471,0,0,0,302.531,591.813Z" transform="translate(-302.105 -591.813)"/><path class="i" d="M306.21,593.589a.131.131,0,0,0-.119.128.122.122,0,0,0,.244,0A.131.131,0,0,0,306.21,593.589Z" transform="translate(-305.816 -593.467)"/></g><g transform="translate(4.06 4.896)"><path class="g" d="M296.649,616.739a.471.471,0,0,0-.426.46.438.438,0,0,0,.875,0A.471.471,0,0,0,296.649,616.739Z" transform="translate(-296.223 -616.739)"/><path class="i" d="M300.328,618.516a.131.131,0,0,0-.119.128.122.122,0,0,0,.244,0A.131.131,0,0,0,300.328,618.516Z" transform="translate(-299.934 -618.393)"/></g><g transform="translate(4.921 5.312)"><path class="g" d="M309.113,622.761a.47.47,0,0,0-.426.46.438.438,0,0,0,.874,0A.471.471,0,0,0,309.113,622.761Z" transform="translate(-308.687 -622.761)"/><path class="i" d="M312.791,624.537a.131.131,0,0,0-.119.128.122.122,0,0,0,.244,0A.131.131,0,0,0,312.791,624.537Z" transform="translate(-312.397 -624.414)"/></g><g transform="translate(5.859 5.08)"><path class="g" d="M322.7,619.4a.471.471,0,0,0-.426.46.438.438,0,0,0,.875,0A.471.471,0,0,0,322.7,619.4Z" transform="translate(-322.27 -619.4)"/><path class="i" d="M326.375,621.176a.131.131,0,0,0-.119.128.122.122,0,0,0,.244,0A.131.131,0,0,0,326.375,621.176Z" transform="translate(-325.981 -621.054)"/></g><g transform="translate(6.835 5.002)"><path class="g" d="M336.839,618.279a.471.471,0,0,0-.426.46.438.438,0,0,0,.875,0A.471.471,0,0,0,336.839,618.279Z" transform="translate(-336.413 -618.279)"/><path class="i" d="M340.518,620.056a.131.131,0,0,0-.119.128.122.122,0,0,0,.244,0A.131.131,0,0,0,340.518,620.056Z" transform="translate(-340.124 -619.933)"/></g><g transform="translate(7.822 3.484)"><path class="g" d="M351.123,596.294a.471.471,0,0,0-.426.46.438.438,0,0,0,.874,0A.471.471,0,0,0,351.123,596.294Z" transform="translate(-350.697 -596.294)"/><path class="i" d="M354.8,598.07a.131.131,0,0,0-.119.128.122.122,0,0,0,.244,0A.131.131,0,0,0,354.8,598.07Z" transform="translate(-354.408 -597.947)"/></g><g transform="translate(8.547 2.923)"><path class="g" d="M361.626,588.172a.471.471,0,0,0-.426.46.438.438,0,0,0,.874,0A.471.471,0,0,0,361.626,588.172Z" transform="translate(-361.2 -588.172)"/><path class="i" d="M365.3,589.948a.131.131,0,0,0-.119.128.122.122,0,0,0,.244,0A.131.131,0,0,0,365.3,589.948Z" transform="translate(-364.91 -589.826)"/></g><g transform="translate(9.205 2.159)"><path class="g" d="M371.148,577.109a.471.471,0,0,0-.426.46.438.438,0,0,0,.874,0A.471.471,0,0,0,371.148,577.109Z" transform="translate(-370.722 -577.109)"/><path class="i" d="M374.827,578.886a.131.131,0,0,0-.119.128.122.122,0,0,0,.244,0A.131.131,0,0,0,374.827,578.886Z" transform="translate(-374.433 -578.763)"/></g><g transform="translate(10.172 2.13)"><path class="g" d="M385.152,576.689a.471.471,0,0,0-.426.46.438.438,0,0,0,.874,0A.471.471,0,0,0,385.152,576.689Z" transform="translate(-384.726 -576.689)"/><path class="i" d="M388.83,578.466a.131.131,0,0,0-.119.128.122.122,0,0,0,.244,0A.131.131,0,0,0,388.83,578.466Z" transform="translate(-388.436 -578.343)"/></g><g transform="translate(7.522 1.24)"><path class="g" d="M346.782,563.806a.471.471,0,0,0-.426.46.438.438,0,0,0,.875,0A.471.471,0,0,0,346.782,563.806Z" transform="translate(-346.356 -563.806)"/><path class="i" d="M350.461,565.582a.131.131,0,0,0-.119.128.122.122,0,0,0,.244,0A.131.131,0,0,0,350.461,565.582Z" transform="translate(-350.067 -565.459)"/></g><g transform="translate(8.46 0.186)"><path class="g" d="M360.365,548.542a.471.471,0,0,0-.426.46.438.438,0,0,0,.874,0A.471.471,0,0,0,360.365,548.542Z" transform="translate(-359.939 -548.542)"/><path class="i" d="M364.044,550.318a.131.131,0,0,0-.119.128.122.122,0,0,0,.244,0A.131.131,0,0,0,364.044,550.318Z" transform="translate(-363.65 -550.196)"/></g><g transform="translate(9.388 0.051)"><path class="g" d="M373.809,546.581a.471.471,0,0,0-.426.46.438.438,0,0,0,.874,0A.471.471,0,0,0,373.809,546.581Z" transform="translate(-373.383 -546.581)"/><path class="i" d="M377.487,548.358a.131.131,0,0,0-.119.128.122.122,0,0,0,.244,0A.131.131,0,0,0,377.487,548.358Z" transform="translate(-377.093 -548.235)"/></g><g transform="translate(9.727 0.979)"><path class="g" d="M378.71,560.025a.471.471,0,0,0-.426.46.438.438,0,0,0,.874,0A.471.471,0,0,0,378.71,560.025Z" transform="translate(-378.284 -560.025)"/><path class="i" d="M382.389,561.8a.131.131,0,0,0-.119.128.122.122,0,0,0,.244,0A.131.131,0,0,0,382.389,561.8Z" transform="translate(-381.995 -561.679)"/></g><g transform="translate(10.636 1.298)"><path class="g" d="M391.873,564.646a.471.471,0,0,0-.426.46.438.438,0,0,0,.874,0A.471.471,0,0,0,391.873,564.646Z" transform="translate(-391.447 -564.646)"/><path class="i" d="M395.552,566.423a.131.131,0,0,0-.119.128.122.122,0,0,0,.244,0A.131.131,0,0,0,395.552,566.423Z" transform="translate(-395.158 -566.3)"/></g><g transform="translate(10.878 3.001)"><path class="g" d="M395.242,589.293a.325.325,0,0,0-.294.317.3.3,0,0,0,.6,0A.325.325,0,0,0,395.242,589.293Z" transform="translate(-394.948 -589.293)"/><path class="i" d="M397.782,590.52a.091.091,0,0,0-.082.089.084.084,0,0,0,.168,0A.091.091,0,0,0,397.782,590.52Z" transform="translate(-397.51 -590.435)"/></g><g transform="translate(10.858 3.697)"><path class="g" d="M394.962,599.376a.325.325,0,0,0-.294.318.3.3,0,0,0,.6,0A.325.325,0,0,0,394.962,599.376Z" transform="translate(-394.668 -599.376)"/><path class="i" d="M397.5,600.6a.091.091,0,0,0-.082.089.084.084,0,0,0,.168,0A.091.091,0,0,0,397.5,600.6Z" transform="translate(-397.23 -600.518)"/></g><g transform="translate(10.636 4.442)"><path class="g" d="M391.741,610.159a.325.325,0,0,0-.294.318.3.3,0,0,0,.6,0A.325.325,0,0,0,391.741,610.159Z" transform="translate(-391.447 -610.159)"/><path class="i" d="M394.281,611.385a.091.091,0,0,0-.082.089.084.084,0,0,0,.168,0A.091.091,0,0,0,394.281,611.385Z" transform="translate(-394.009 -611.3)"/></g><g transform="translate(10.634 0.223)"><path class="g" d="M391.829,549.075a.452.452,0,0,0-.409.442.42.42,0,0,0,.839,0A.452.452,0,0,0,391.829,549.075Z" transform="translate(-391.42 -549.075)"/><path class="i" d="M395.361,550.781a.126.126,0,0,0-.114.123.117.117,0,0,0,.234,0A.126.126,0,0,0,395.361,550.781Z" transform="translate(-394.983 -550.663)"/></g><g transform="translate(0.577 1.887)"><path class="g" d="M246.092,573.161a.341.341,0,0,0-.309.333.317.317,0,0,0,.633,0A.341.341,0,0,0,246.092,573.161Z" transform="translate(-245.783 -573.161)"/><path class="i" d="M248.756,574.448a.1.1,0,0,0-.086.093.088.088,0,0,0,.177,0A.1.1,0,0,0,248.756,574.448Z" transform="translate(-248.471 -574.359)"/></g><g transform="translate(10.82 5.138)"><path class="g" d="M394.4,620.241a.325.325,0,0,0-.294.318.3.3,0,0,0,.6,0A.325.325,0,0,0,394.4,620.241Z" transform="translate(-394.108 -620.241)"/><path class="i" d="M396.941,621.467a.091.091,0,0,0-.082.089.084.084,0,0,0,.168,0A.091.091,0,0,0,396.941,621.467Z" transform="translate(-396.669 -621.383)"/></g><g transform="translate(6.129 4.316)"><path class="g" d="M326.485,608.338a.325.325,0,0,0-.294.317.3.3,0,0,0,.6,0A.325.325,0,0,0,326.485,608.338Z" transform="translate(-326.191 -608.338)"/><path class="i" d="M329.025,609.564a.091.091,0,0,0-.082.089.084.084,0,0,0,.168,0A.091.091,0,0,0,329.025,609.564Z" transform="translate(-328.753 -609.48)"/></g><g transform="translate(5.559 3.571)"><path class="g" d="M318.223,597.555a.325.325,0,0,0-.294.318.3.3,0,0,0,.6,0A.325.325,0,0,0,318.223,597.555Z" transform="translate(-317.929 -597.555)"/><path class="i" d="M320.762,598.782a.091.091,0,0,0-.082.089.084.084,0,0,0,.168,0A.091.091,0,0,0,320.762,598.782Z" transform="translate(-320.49 -598.698)"/></g><g transform="translate(4.727 2.43)"><path class="g" d="M306.18,581.031a.325.325,0,0,0-.294.318.3.3,0,0,0,.6,0A.325.325,0,0,0,306.18,581.031Z" transform="translate(-305.886 -581.031)"/><path class="i" d="M308.719,582.257a.091.091,0,0,0-.082.089.084.084,0,0,0,.168,0A.091.091,0,0,0,308.719,582.257Z" transform="translate(-308.447 -582.173)"/></g><g transform="translate(2.59 2.063)"><path class="g" d="M275.232,575.71a.325.325,0,0,0-.294.318.3.3,0,0,0,.6,0A.325.325,0,0,0,275.232,575.71Z" transform="translate(-274.938 -575.71)"/><path class="i" d="M277.772,576.936a.09.09,0,0,0-.082.089.084.084,0,0,0,.168,0A.091.091,0,0,0,277.772,576.936Z" transform="translate(-277.5 -576.852)"/></g><g transform="translate(3.219 1.859)"><path class="g" d="M284.334,572.769a.325.325,0,0,0-.294.318.3.3,0,0,0,.6,0A.325.325,0,0,0,284.334,572.769Z" transform="translate(-284.04 -572.769)"/><path class="i" d="M286.874,574a.091.091,0,0,0-.082.089.084.084,0,0,0,.168,0A.091.091,0,0,0,286.874,574Z" transform="translate(-286.602 -573.911)"/></g><g transform="translate(1.729 4.809)"><path class="g" d="M262.769,615.48a.325.325,0,0,0-.294.318.3.3,0,0,0,.6,0A.325.325,0,0,0,262.769,615.48Z" transform="translate(-262.475 -615.48)"/><path class="i" d="M265.309,616.706a.091.091,0,0,0-.082.089.084.084,0,0,0,.168,0A.091.091,0,0,0,265.309,616.706Z" transform="translate(-265.037 -616.621)"/></g><g transform="translate(2.329 5.206)"><path class="g" d="M271.366,621.223a.231.231,0,0,0-.209.226.215.215,0,0,0,.43,0A.231.231,0,0,0,271.366,621.223Z" transform="translate(-271.157 -621.223)"/><path class="i" d="M273.173,622.094a.064.064,0,0,0-.058.063.06.06,0,0,0,.12,0A.064.064,0,0,0,273.173,622.094Z" transform="translate(-272.98 -622.034)"/></g><g transform="translate(3.663 4.741)"><path class="g" d="M290.691,614.5a.231.231,0,0,0-.209.226.215.215,0,0,0,.43,0A.231.231,0,0,0,290.691,614.5Z" transform="translate(-290.482 -614.5)"/><path class="i" d="M292.5,615.374a.064.064,0,0,0-.058.063.06.06,0,0,0,.12,0A.064.064,0,0,0,292.5,615.374Z" transform="translate(-292.305 -615.313)"/></g><g transform="translate(3.702 3.62)"><path class="g" d="M291.251,598.257a.231.231,0,0,0-.209.226.215.215,0,0,0,.43,0A.231.231,0,0,0,291.251,598.257Z" transform="translate(-291.042 -598.256)"/><path class="i" d="M293.058,599.129a.065.065,0,0,0-.058.063.06.06,0,0,0,.12,0A.065.065,0,0,0,293.058,599.129Z" transform="translate(-292.865 -599.069)"/></g><g transform="translate(6.574 5.815)"><path class="g" d="M332.842,630.044a.231.231,0,0,0-.209.226.215.215,0,0,0,.43,0A.232.232,0,0,0,332.842,630.044Z" transform="translate(-332.633 -630.044)"/><path class="i" d="M334.649,630.917a.064.064,0,0,0-.058.063.06.06,0,0,0,.12,0A.064.064,0,0,0,334.649,630.917Z" transform="translate(-334.456 -630.857)"/></g><g transform="translate(7.667 4.596)"><path class="g" d="M348.7,612.4a.273.273,0,0,0-.247.267.254.254,0,0,0,.507,0A.273.273,0,0,0,348.7,612.4Z" transform="translate(-348.457 -612.4)"/><path class="i" d="M350.836,613.429a.076.076,0,0,0-.069.074.071.071,0,0,0,.141,0A.076.076,0,0,0,350.836,613.429Z" transform="translate(-350.607 -613.358)"/></g><g transform="translate(7.135 3.02)"><path class="g" d="M341,589.574a.273.273,0,0,0-.247.267.254.254,0,0,0,.507,0A.273.273,0,0,0,341,589.574Z" transform="translate(-340.755 -589.574)"/><path class="i" d="M343.135,590.6a.076.076,0,0,0-.069.074.071.071,0,0,0,.141,0A.076.076,0,0,0,343.135,590.6Z" transform="translate(-342.906 -590.533)"/></g><g transform="translate(7.135 1.966)"><path class="g" d="M341,574.31a.273.273,0,0,0-.247.267.254.254,0,0,0,.507,0A.273.273,0,0,0,341,574.31Z" transform="translate(-340.755 -574.31)"/><path class="i" d="M343.135,575.34a.076.076,0,0,0-.069.074.071.071,0,0,0,.141,0A.076.076,0,0,0,343.135,575.34Z" transform="translate(-342.906 -575.269)"/></g><g transform="translate(7.725 5.447)"><path class="g" d="M349.544,624.723a.273.273,0,0,0-.247.267.254.254,0,0,0,.507,0A.273.273,0,0,0,349.544,624.723Z" transform="translate(-349.297 -624.723)"/><path class="i" d="M351.677,625.753a.076.076,0,0,0-.069.074.071.071,0,0,0,.141,0A.076.076,0,0,0,351.677,625.753Z" transform="translate(-351.448 -625.681)"/></g><g transform="translate(8.247 5.989)"><path class="g" d="M357.106,632.565a.273.273,0,0,0-.247.267.254.254,0,0,0,.507,0A.273.273,0,0,0,357.106,632.565Z" transform="translate(-356.859 -632.565)"/><path class="i" d="M359.239,633.595a.076.076,0,0,0-.069.074.071.071,0,0,0,.141,0A.076.076,0,0,0,359.239,633.595Z" transform="translate(-359.01 -633.523)"/></g><g transform="translate(9.282 6.956)"><path class="g" d="M372.09,646.568a.273.273,0,0,0-.247.267.254.254,0,0,0,.507,0A.273.273,0,0,0,372.09,646.568Z" transform="translate(-371.843 -646.568)"/><path class="i" d="M374.222,647.6a.076.076,0,0,0-.069.074.071.071,0,0,0,.141,0A.076.076,0,0,0,374.222,647.6Z" transform="translate(-373.993 -647.527)"/></g><g transform="translate(9.872 6.743)"><path class="g" d="M380.632,643.487a.273.273,0,0,0-.247.267.254.254,0,0,0,.507,0A.273.273,0,0,0,380.632,643.487Z" transform="translate(-380.385 -643.487)"/><path class="i" d="M382.764,644.518a.076.076,0,0,0-.069.074.071.071,0,0,0,.141,0A.076.076,0,0,0,382.764,644.518Z" transform="translate(-382.535 -644.446)"/></g><g transform="translate(2.745 2.672)"><path class="g" d="M277.539,584.532a.4.4,0,0,0-.36.389.37.37,0,0,0,.739,0A.4.4,0,0,0,277.539,584.532Z" transform="translate(-277.179 -584.531)"/><path class="i" d="M280.647,586.033a.111.111,0,0,0-.1.108.1.1,0,0,0,.206,0A.111.111,0,0,0,280.647,586.033Z" transform="translate(-280.314 -585.93)"/></g><g transform="translate(5.259 2.923)"><path class="g" d="M313.825,588.173a.262.262,0,0,0-.238.256.244.244,0,0,0,.488,0A.263.263,0,0,0,313.825,588.173Z" transform="translate(-313.587 -588.173)"/><path class="i" d="M315.876,589.163a.073.073,0,0,0-.066.072.068.068,0,0,0,.136,0A.073.073,0,0,0,315.876,589.163Z" transform="translate(-315.656 -589.095)"/></g><g transform="translate(8.799 3.832)"><path class="g" d="M365.267,601.335a.471.471,0,0,0-.426.46.438.438,0,0,0,.874,0A.471.471,0,0,0,365.267,601.335Z" transform="translate(-364.841 -601.335)"/><path class="i" d="M368.945,603.112a.131.131,0,0,0-.119.128.122.122,0,0,0,.244,0A.131.131,0,0,0,368.945,603.112Z" transform="translate(-368.551 -602.989)"/></g><g transform="translate(9.456 4.48)"><path class="g" d="M374.941,610.718a.637.637,0,0,0-.577.623.593.593,0,0,0,1.184,0A.637.637,0,0,0,374.941,610.718Z" transform="translate(-374.364 -610.718)"/><path class="i" d="M379.921,613.123a.178.178,0,0,0-.161.174.165.165,0,0,0,.33,0A.178.178,0,0,0,379.921,613.123Z" transform="translate(-379.387 -612.957)"/></g><g transform="translate(8.789 5.718)"><path class="g" d="M365.279,628.642a.637.637,0,0,0-.577.623.593.593,0,0,0,1.184,0A.638.638,0,0,0,365.279,628.642Z" transform="translate(-364.702 -628.642)"/><path class="i" d="M370.258,631.047a.178.178,0,0,0-.161.174.165.165,0,0,0,.33,0A.178.178,0,0,0,370.258,631.047Z" transform="translate(-369.724 -630.881)"/></g><path class="d" d="M348.089,578.682c0-.38-.168-.56-.523-.563a.564.564,0,0,0,0,1.127C347.922,579.242,348.089,579.062,348.089,578.682Z" transform="translate(-339.453 -575.89)"/><path class="h" d="M379.88,593.237c0-.363-.16-.523-.516-.521-.374,0-.551.174-.552.533a.537.537,0,1,0,1.068-.012Z" transform="translate(-369.049 -589.479)"/><path class="g" d="M340.733,632.233a.549.549,0,0,0-.574.534s0,.006,0,.008c.344.111.676.232.984.364a.588.588,0,0,0,.142-.379A.547.547,0,0,0,340.733,632.233Z" transform="translate(-333.065 -626.267)"/><path class="j" d="M357.01,614.2c-.374,0-.547.175-.546.565a.535.535,0,1,0,1.068,0C357.533,614.384,357.362,614.2,357.01,614.2Z" transform="translate(-348.244 -609.475)"/><path class="d" d="M357.635,644.274a.509.509,0,0,0-.41.162,5.013,5.013,0,0,1,.939.545.615.615,0,0,0,.017-.137A.55.55,0,0,0,357.635,644.274Z" transform="translate(-348.952 -637.476)"/><path class="f" d="M362.183,561.781a.542.542,0,0,0-.554.559.552.552,0,0,0,.522.569.5.5,0,0,0,.546-.553C362.7,561.971,362.534,561.787,362.183,561.781Z" transform="translate(-353.052 -560.68)"/><path class="d" d="M321.17,586.28a.573.573,0,0,0,.63.4.426.426,0,0,0,.377-.277c-.186-.12-.524-.328-.96-.552A.6.6,0,0,0,321.17,586.28Z" transform="translate(-315.369 -583.09)"/><path class="f" d="M289.137,580.7c-.361,0-.534.177-.536.551a.532.532,0,0,0,.5.575.541.541,0,0,0,.57-.541C289.674,580.881,289.507,580.7,289.137,580.7Zm.123.5a1.523,1.523,0,0,1-.291-.2c.065-.061.136-.176.195-.17.094.009.179.1.319.187C289.372,581.112,289.293,581.212,289.26,581.2Z" transform="translate(-285.067 -578.29)"/><path class="h" d="M310.06,606.558c-.06.07-.145.21-.177.2-.15-.053-.369-.063-.334-.317a.527.527,0,0,0-.125.027.3.3,0,0,0-.135.093.316.316,0,0,0-.042.069.4.4,0,0,0-.015.038.554.554,0,0,0-.02.083,1.674,1.674,0,0,0-.015.232.466.466,0,0,0,.381.52.524.524,0,0,0,.643-.332C310.3,606.942,310.328,606.7,310.06,606.558Z" transform="translate(-304.241 -602.254)"/><path class="f" d="M335.093,598.626c.183-.01.319.054.321.254,0,.054-.1.162-.131.154-.152-.035-.353-.032-.352-.272a.372.372,0,0,0-.211.334v0a.441.441,0,0,0,.006.076.535.535,0,0,0,.048.147.824.824,0,0,0,.434.371.39.39,0,0,0,.531-.241,1.135,1.135,0,0,0-.05-.691C335.585,598.542,335.326,598.53,335.093,598.626Z" transform="translate(-328.001 -594.928)"/><path class="j" d="M383.208,627.469l-.123.268a1.279,1.279,0,0,1-.32-.169c-.023-.021.071-.169.112-.259a.574.574,0,0,0-.548.508.546.546,0,0,0,.087.36.475.475,0,0,0,.587.225l.012-.006c.145-.211.291-.444.43-.7A.323.323,0,0,0,383.208,627.469Z" transform="translate(-372.319 -621.682)"/><path class="d" d="M404.894,610.968a1.091,1.091,0,0,0-.025.112.417.417,0,0,0,.01.171c.064-.176.123-.358.173-.545A.5.5,0,0,0,404.894,610.968Z" transform="translate(-393.302 -606.227)"/><path class="k" d="M314.579,605.119c.032.011.117-.128.177-.2a.512.512,0,0,0-.2-.226.167.167,0,0,0-.059-.014h-.031a.247.247,0,0,0-.066.019l-.035.017a.783.783,0,0,0-.117.084C314.21,605.056,314.429,605.067,314.579,605.119Z" transform="translate(-308.937 -600.617)"/><path class="k" d="M388.647,627.567a1.281,1.281,0,0,0,.32.169l.123-.268-.331-.161C388.718,627.4,388.624,627.546,388.647,627.567Z" transform="translate(-378.201 -621.682)"/><path class="k" d="M338.131,599.8c.032.007.131-.1.131-.154,0-.2-.138-.264-.321-.254l-.162.137C337.779,599.766,337.979,599.763,338.131,599.8Z" transform="translate(-330.849 -595.691)"/><path class="i" d="M262.392,577.375c.127.049.284.17.373.132.13-.056.139-.218-.02-.32-.019-.013-.021-.053-.031-.08a.158.158,0,0,1-.054-.013c-.038.005-.1,0-.112.018A2.975,2.975,0,0,0,262.392,577.375Z" transform="translate(-260.668 -574.936)"/><path class="k" d="M251.683,597.159l-.322.385a2.312,2.312,0,0,0,.4.276c.031.014.216-.173.2-.238C251.936,597.455,251.816,597.347,251.683,597.159Z" transform="translate(-250.399 -593.615)"/><path class="i" d="M276.177,599.993a1.524,1.524,0,0,0,.332.2c.04.013.125-.11.241-.22-.147-.091-.246-.2-.343-.2C276.329,599.782,276.254,599.917,276.177,599.993Z" transform="translate(-273.501 -596.055)"/><path class="k" d="M283.831,624.574c-.062,0-.122.112-.183.174a1.978,1.978,0,0,0,.244.142l.065.006c.037-.024.093-.092.171-.16C283.995,624.658,283.912,624.573,283.831,624.574Z" transform="translate(-280.456 -619.137)"/><path class="k" d="M293.938,582.819a1.536,1.536,0,0,0,.291.2c.033.013.112-.087.223-.18-.14-.088-.225-.178-.319-.187C294.074,582.643,294,582.759,293.938,582.819Z" transform="translate(-290.036 -580.107)"/></g></g></svg>